<?xml version="1.0" encoding="UTF-8"?>
<svg id="Layer_1" data-name="Layer 1" xmlns="http://www.w3.org/2000/svg" viewBox="0 0 648 228.01">
  <defs>
    <style>
      .cls-1 {
        fill: #fe4811;
      }
    </style>
  </defs>
  <path class="cls-1" d="M578.92,55.73c-.15.16-.25.34-.34.52-.03.07-.06.16-.09.27-5.14,16.37-9.37,30.86-16.08,48.99-8.8-15.23-25.34-50.37-26.29-52.36-2.78-5.89-12.77.36-15.91,4.05-3.76-2.88-9.58-4.94-16.2-5.89-15.07-2.18-34.19,1.45-41.97,14.7-1.81,3.09-3.98,8.64-6.15,15.11-.09.27-.16.55-.25.82-.98,3.24-2.03,6.74-3.09,10.24,2.58-41.3-22.79-43.53-22.79-43.53-3.71-.31-33.05-2.26-48.48,60.63-1.22,4.96-2.14,9.53-2.82,13.81-9.37-.43-22.46-.58-43.27,3.49-5.27,1.02-1.02,15.82,4.79,14.68,2.88-.56,7.01-1.37,18.9-2.76h.01s.03-.01.03-.01c-4.79,11.76-19.02,26.08-28.95,27.33-.22.03-26.36,7.16-1.59-64.47,17.12-49.48,27.33-42.58,28.04-42.03h.04c6.75,5.28-2.48,43.21-2.63,44-1.13,6.01,18.88,5.27,20.23-1.4,4.39-21.63,2.89-35.02-1.77-42.99-.09-.15-.19-.31-.3-.48-6.52-10.24-18.56-9.86-19.21-9.84-28.93.4-47.04,43.73-52.77,77.16-35.58,4.08-81.74,18.53-92.86,22.65-7.2,2.69-4.72,22.27,1.5,20.14,35.32-10.3,59.19-16.63,89.38-21.73.01,3.95.33,7.36.94,10.11,4.71,21.2,29.01,29.47,51.96,15.81,7.82-4.65,22.98-19.42,25.82-27.09.88,15.72,5.47,27.17,14.53,31.16,28.04,12.38,48.52-33.39,50.14-37.56-.34,2.3-2.24,20.74-1.69,32.75.28,6.13,20.12,10.04,20.23,4.51.21-9.16.88-23.62,3.43-24.72,9.34-3.99,46.18-6.93,57.02-10.79,5.92-2.12,5.05-21.29,1.41-20.17-11.58,3.55-54.96,14.22-52.48,10.39,2.48-3.83,53.77-25.55,56.26-52.51,5.37,13.98,26.66,43.27,29.07,46.52-5.02,12.17-11.22,26.17-19.25,43.04-3.04,5.75,16,11.49,18.45,6.59,25.18-50.38,43.36-105.82,44.76-112.14,1.31-5.76-16.49-10.69-19.73-7.01ZM399.7,163.69c-15.07-5.66,13.1-106.76,28.63-101.61,15.53,5.15-5.99,110.12-28.63,101.61ZM505.22,81.13c-4.32,5.09-10.02,10.75-15.82,16.11-12.75,11.83-25.98,22.25-25.98,22.25,1.19-3.33,8.28-24.58,13.11-37.56,2.89-7.63,5.75-13.92,7.73-15.85.74-.71,2.64-1.35,5.14-1.84.19-.03.4-.07.62-.1,2.64-.47,5.85-.76,9-.79.33-.01.65-.01.98-.01.37,0,.73.01,1.08.01,5.42.16,10.24,1.14,11.06,3.44,1.07,2.97-1.87,8.15-6.72,14.1-.06.09-.12.16-.19.24Z"/>
  <path class="cls-1" d="M291.17,87.54c-4.9,0-59.4,9.41-84.1,20.16-4.96,2.15-4.26,11.09-3.87,14.01-14.34,4.05-49.15,12.28-49.58,9.52-.25-1.62,49.33-21.73,53.56-40.04,1.29-5.61,58.18-17.09,84.2-19.79,4.63-.49-.45-17.7-7.26-17.32-4.63.24-36.4,2.05-74.64,16-.27-3.93-1.63-7.13-4.05-10.2-9.13-11.55-48.56-14.15-60.64,6.41-6.55,11.15-17.6,54.52-17.99,56.41-9.81-1.29-25.67.19-38.3,3.47-5.52,1.43-2.69,17.26,3.06,15.96,5.61-1.26,18.57-3.67,18.57-3.67-14.04,30.34-62.38,55.03-30.51-37.14,13.02-37.68,23.89-45.16,28.01-42.03h.04c6.77,5.28-2.48,43.21-2.63,44-1.13,5.97,18.59,5.14,20.26-1.4,10.63-41.22-7.04-52.54-19.12-53.26-41.51-2.46-61.62,82.89-55.97,108.29,6.31,28.44,47.88,33.59,74.15-6.18-.01.18-.03.31-.03.39-.5,6.31-.68,14.9-.4,20.86.28,6.13,20.16,10.04,20.28,4.51.21-9.16.88-23.62,3.44-24.72,9.35-3.99,46.27-6.93,57.14-10.79,3.47-1.23,4.6-8.28,4.23-13.7,27.2-8.33,61.93-17.34,88.49-21.21,4.6-.71-.91-18.57-6.35-18.56ZM166.99,66.38c3.07-2.97,25.99-4.56,27.88.71,3.93,11.07-47.21,52.4-47.21,52.4.33-4.33,13.49-47.46,19.33-53.12Z"/>
</svg>