<?xml version="1.0" encoding="UTF-8"?>
<svg id="Layer_1" data-name="Layer 1" xmlns="http://www.w3.org/2000/svg" viewBox="0 0 360 360">
  <defs>
    <style>
      .cls-1 {
        fill: #fe4811;
      }
    </style>
  </defs>
  <path class="cls-1" d="M296.02,211.63c-4.34.24-129.32,16.64-230.8,54.47-17.25,6.43-11.31,53.33,3.6,48.29,119.99-38.66,229.04-55.42,246.29-57.21,12.16-1.26-1.17-46.53-19.1-45.54Z"/>
  <path class="cls-1" d="M54.21,136.23c3.34-1.13,98.48-34.58,206.75-49.83,1.14-.16,1.98-.75,2.65-1.63,5.79-7.63-5.36-40.31-19.9-39.51-69.63,3.84-152.2,27.85-193.08,43.08-17.11,6.38-11.21,52.9,3.57,47.89Z"/>
  <path class="cls-1" d="M60.8,174.73c-9.33,3.48-11.93,18.69-10.02,31.26,1.65,10.88,6.68,19.79,13.65,17.43.28-.09.56-.18.84-.27,88.81-27.91,201.92-50.45,218.08-52.95.77-.12,1.39-.47,1.94-.96,7.33-6.55-5.09-45.1-17.29-43.88-105.39,10.53-203.47,47.97-207.2,49.36Z"/>
</svg>